<svg width="223" height="90" viewBox="0 0 223 90" fill="none"
    xmlns="http://www.w3.org/2000/svg">
    <path d="M58.0312 43.5469L65.8594 0.75H82.1719L67.6875 69H50.625L41.4844 30.0938L32.5312 69H15.5156L0.984375 0.75H17.3438L25.1719 43.5469L34.5469 0.75H48.5156L58.0312 43.5469ZM108.124 69C107.561 67.9688 107.061 66.4531 106.624 64.4531C103.717 68.1094 99.655 69.9375 94.4362 69.9375C89.655 69.9375 85.5925 68.5 82.2487 65.625C78.905 62.7188 77.2331 59.0781 77.2331 54.7031C77.2331 49.2031 79.2644 45.0469 83.3269 42.2344C87.3894 39.4219 93.2956 38.0156 101.046 38.0156H105.921V35.3438C105.921 30.6875 103.905 28.3594 99.8737 28.3594C96.1237 28.3594 94.2487 30.2031 94.2487 33.8906H78.4519C78.4519 28.9844 80.53 25 84.6862 21.9375C88.8737 18.875 94.2019 17.3438 100.671 17.3438C107.139 17.3438 112.249 18.9219 115.999 22.0781C119.749 25.2344 121.671 29.5625 121.764 35.0625V57.5156C121.827 62.1719 122.546 65.7344 123.921 68.2031V69H108.124ZM98.2331 58.6875C100.202 58.6875 101.827 58.2656 103.108 57.4219C104.421 56.5781 105.358 55.625 105.921 54.5625V46.4531H101.327C95.8269 46.4531 93.0769 48.9219 93.0769 53.8594C93.0769 55.2969 93.5612 56.4688 94.53 57.375C95.4987 58.25 96.7331 58.6875 98.2331 58.6875ZM142.232 5.67188V18.2812H150.576V29.25H142.232V52.4531C142.232 54.3594 142.576 55.6875 143.263 56.4375C143.951 57.1875 145.31 57.5625 147.341 57.5625C148.904 57.5625 150.216 57.4688 151.279 57.2812V68.5781C148.435 69.4844 145.466 69.9375 142.372 69.9375C136.935 69.9375 132.919 68.6562 130.326 66.0938C127.732 63.5312 126.435 59.6406 126.435 54.4219V29.25H119.966V18.2812H126.435V5.67188H142.232ZM168.512 5.67188V18.2812H176.856V29.25H168.512V52.4531C168.512 54.3594 168.856 55.6875 169.543 56.4375C170.231 57.1875 171.59 57.5625 173.621 57.5625C175.184 57.5625 176.496 57.4688 177.559 57.2812V68.5781C174.715 69.4844 171.746 69.9375 168.652 69.9375C163.215 69.9375 159.199 68.6562 156.606 66.0938C154.012 63.5312 152.715 59.6406 152.715 54.4219V29.25H146.246V18.2812H152.715V5.67188H168.512ZM196.667 46.875L205.104 18.2812H222.026L201.354 77.4844L200.464 79.6406C197.526 86.2031 192.339 89.4844 184.901 89.4844C182.839 89.4844 180.667 89.1719 178.386 88.5469V77.25H180.448C182.667 77.25 184.354 76.9219 185.511 76.2656C186.698 75.6406 187.573 74.5 188.136 72.8438L189.401 69.4688L171.776 18.2812H188.651L196.667 46.875Z" fill="#5DD8D8"/>
    <path d="M58.0312 43.5469L65.8594 0.75H82.1719L67.6875 69H50.625L41.4844 30.0938L32.5312 69H15.5156L0.984375 0.75H17.3438L25.1719 43.5469L34.5469 0.75H48.5156L58.0312 43.5469ZM108.124 69C107.561 67.9688 107.061 66.4531 106.624 64.4531C103.717 68.1094 99.655 69.9375 94.4362 69.9375C89.655 69.9375 85.5925 68.5 82.2487 65.625C78.905 62.7188 77.2331 59.0781 77.2331 54.7031C77.2331 49.2031 79.2644 45.0469 83.3269 42.2344C87.3894 39.4219 93.2956 38.0156 101.046 38.0156H105.921V35.3438C105.921 30.6875 103.905 28.3594 99.8737 28.3594C96.1237 28.3594 94.2487 30.2031 94.2487 33.8906H78.4519C78.4519 28.9844 80.53 25 84.6862 21.9375C88.8737 18.875 94.2019 17.3438 100.671 17.3438C107.139 17.3438 112.249 18.9219 115.999 22.0781C119.749 25.2344 121.671 29.5625 121.764 35.0625V57.5156C121.827 62.1719 122.546 65.7344 123.921 68.2031V69H108.124ZM98.2331 58.6875C100.202 58.6875 101.827 58.2656 103.108 57.4219C104.421 56.5781 105.358 55.625 105.921 54.5625V46.4531H101.327C95.8269 46.4531 93.0769 48.9219 93.0769 53.8594C93.0769 55.2969 93.5612 56.4688 94.53 57.375C95.4987 58.25 96.7331 58.6875 98.2331 58.6875ZM142.232 5.67188V18.2812H150.576V29.25H142.232V52.4531C142.232 54.3594 142.576 55.6875 143.263 56.4375C143.951 57.1875 145.31 57.5625 147.341 57.5625C148.904 57.5625 150.216 57.4688 151.279 57.2812V68.5781C148.435 69.4844 145.466 69.9375 142.372 69.9375C136.935 69.9375 132.919 68.6562 130.326 66.0938C127.732 63.5312 126.435 59.6406 126.435 54.4219V29.25H119.966V18.2812H126.435V5.67188H142.232ZM168.512 5.67188V18.2812H176.856V29.25H168.512V52.4531C168.512 54.3594 168.856 55.6875 169.543 56.4375C170.231 57.1875 171.59 57.5625 173.621 57.5625C175.184 57.5625 176.496 57.4688 177.559 57.2812V68.5781C174.715 69.4844 171.746 69.9375 168.652 69.9375C163.215 69.9375 159.199 68.6562 156.606 66.0938C154.012 63.5312 152.715 59.6406 152.715 54.4219V29.25H146.246V18.2812H152.715V5.67188H168.512ZM196.667 46.875L205.104 18.2812H222.026L201.354 77.4844L200.464 79.6406C197.526 86.2031 192.339 89.4844 184.901 89.4844C182.839 89.4844 180.667 89.1719 178.386 88.5469V77.25H180.448C182.667 77.25 184.354 76.9219 185.511 76.2656C186.698 75.6406 187.573 74.5 188.136 72.8438L189.401 69.4688L171.776 18.2812H188.651L196.667 46.875Z" fill="url(#paint0_linear)"/>
    <defs>
        <linearGradient id="paint0_linear" x1="126" y1="103" x2="126" y2="-4" gradientUnits="userSpaceOnUse">
            <stop stop-color="#0A4488"/>
            <stop offset="1" stop-color="#FF86FA" stop-opacity="0"/>
        </linearGradient>
    </defs>
</svg>
